<svg height="24" viewBox="0 0 6.35 6.35" width="24" xmlns="http://www.w3.org/2000/svg">
<path d="m2.76 4.12c-1.01.01-1.59-.31-2.23-.95.35.69 1.28 1.33 2.19 1.37.91.05 2.13-.48 3.1-1.37-1.15.73-2.26.95-3.06.95z"/>
<path d="m5.24 3.64-.26.18c.17.09.38.42.47.62.05-.28-.07-.65-.21-.8zm-4.3.08c-.2.36-.5.74-.94 1.02.36-.1.85-.3 1.23-.77zm3.57.36-.32.15c.16.15.37.65.43 1.05.09-.35.09-.87-.11-1.19zm-2.88.14c-.05.3-.28.8-.57 1.24.4-.18.84-.76.93-1.07zm2.05.19-.37.09c.17.31.23.71.29 1.17.14-.34.2-.84.08-1.25zm-1.23.1c.05.31.03.8-.05 1.16.23-.22.45-.7.42-1.13z"/>
<path d="m6.35 2.65c-1.55-1.12-4.68-2.45-5.82-.53-.53 0-.68-.8-.27-1.06 1.56-1.26 4.24-.65 6.09 1.59z" fill-opacity=".29"/>
</svg>
