<svg height="24" viewBox="0 0 24 24" width="24" xmlns="http://www.w3.org/2000/svg">
  <g fill="#2e5999">
    <path d="m7.2 17.37v.87c-8.06 0-4.6-1.74-6.41-6.1-.35-.84-.85-1.38-1.65-1.72.91-.5 1.51-1.27 1.73-1.81 1.73-4.27-1.73-6 6.33-6v.86c-4.6 0 0 5.21-4.6 6.95 4.6 1.74 0 6.95 4.6 6.95z" transform="matrix(.87 0 0 1.15 2.74 0)"/>
    <path d="m7.6 5.45h3.5l2.73 7.56 2.72-7.56h3.51l-4.32 10.95h-3.84z" transform="matrix(.66 0 0 .88 2.85 2.71)"/>
    <path d="m18.71 17.37v.87c8.06 0 4.6-1.74 6.41-6.1.35-.84.85-1.39 1.65-1.72-.9-.51-1.51-1.28-1.73-1.82-1.73-4.26 1.73-6-6.33-6v.87c4.6 0 0 5.21 4.6 6.95-4.6 1.74 0 6.95-4.6 6.95z" transform="matrix(.87 0 0 1.15 -1.26 0)"/>
  </g>
</svg>
